<svg width="648" height="648" viewBox="0 0 648 648" fill="none" xmlns="http://www.w3.org/2000/svg">
<g clip-path="url(#clip0_183_72)">
<path d="M154.051 69.824C249.042 -9.49269 375.392 -21.0337 498.09 34.1755C528.018 47.6427 554.172 71.6111 559.992 98.3005C561.576 105.583 561.594 111.452 561.237 116.94C560.946 121.413 560.512 124.769 560.318 128.829C656.638 236.773 661.231 335.413 632.591 409.012C618.288 445.761 595.86 475.832 573.319 497.375C551.14 518.571 527.649 532.63 510.632 535.574C499.74 537.455 490.118 531.69 485.089 526.907C484.054 525.921 483.027 524.544 482.289 523.454C481.407 522.151 480.388 520.442 479.471 518.488C477.831 514.999 475.589 508.741 477.515 502.131C478.363 499.213 479.237 496.034 480.142 492.869C478.169 493.851 476.084 494.856 473.89 495.842C459.992 502.084 441.512 508.201 420.619 509.495C426.031 522.327 436.577 547.307 457.072 595.903C459.412 601.452 460.21 607.649 457.38 613.391C454.672 618.868 449.716 621.707 445.74 623.229C350.88 659.501 257.466 652.208 179.249 625.185C101.211 598.222 37.691 551.424 2.25306 507.692L0.105327 505.026L0.0669749 501.613C-2.32106 293.782 59.3444 148.907 154.051 69.824ZM490.037 52.0668C373.142 -0.530743 255.016 11.0968 166.631 84.8965C78.4744 158.513 18.0461 295.578 19.665 497.894C53.0239 537.826 112.358 581.297 185.654 606.622C260.366 632.434 348.964 639.227 438.741 604.896C438.953 604.814 439.118 604.68 439.277 604.608L438.971 603.534L401.022 513.522C399.087 508.937 398.037 506.457 397.473 505.122C397.145 504.346 396.981 503.936 396.898 503.741C396.863 503.661 396.821 503.588 396.821 503.588V503.549L392.448 493.214L403.284 490.261L405.852 499.734C404.921 496.309 405.24 494.204 406.237 493.156L406.428 489.935C429.357 491.278 450.348 484.887 465.835 477.931C473.537 474.472 479.771 470.921 484.034 468.266C486.157 466.943 487.793 465.849 488.867 465.101C489.401 464.728 489.806 464.422 490.055 464.239C490.173 464.153 490.257 464.084 490.304 464.047L490.363 464.009L513.605 446.252L505.76 474.46V474.517C505.76 474.517 505.723 474.607 505.703 474.67C505.664 474.813 505.605 475.033 505.53 475.304C505.377 475.856 505.159 476.675 504.878 477.682C504.315 479.699 503.516 482.544 502.597 485.812C500.772 492.297 498.424 500.519 496.403 507.463C496.415 507.374 496.386 507.508 496.46 507.922C496.566 508.484 496.829 509.255 497.246 510.147C497.656 511.015 498.139 511.822 498.552 512.429C498.667 512.601 498.775 512.757 498.858 512.868C499.96 513.87 501.456 514.891 503.076 515.555C504.798 516.258 506.222 516.407 507.276 516.224C518.614 514.267 538.653 503.357 559.76 483.184C580.51 463.353 601.15 435.629 614.279 401.897C640.238 335.197 637.506 243.155 543.116 139.031L540.546 136.193L540.585 132.357C540.636 125.788 541.373 119.758 541.64 115.674C541.922 111.335 541.889 107.414 540.815 102.481C536.897 84.5189 517.328 64.3474 490.037 52.0668ZM39.474 493.368C33.2986 80.4873 293.037 -33.8851 497.093 78.0697C505.24 82.5401 516.338 92.9594 520.008 100.41C524.599 109.736 521.791 126.087 521.791 126.087C521.791 126.087 489.603 130.84 425.278 205.322C313.726 48.6379 189.185 182.785 173.803 231.191C102.066 456.952 289.312 493.356 373.138 495.899C391.708 533.224 414.885 594.157 414.885 594.157C312.666 624.743 157.223 611.948 39.474 493.368ZM529.597 151.361C628.104 258.222 642.893 401.691 520.813 491.009C527.541 458.03 541.145 422.439 534.296 405.886C523.833 380.604 501.454 387.671 488.407 354.666C481.338 336.787 481.331 319.391 479.817 285.823C470.006 288.847 446.232 310.174 455.424 345.174C474.032 416.022 507.468 399.761 507.468 421.936C507.449 430.235 475.043 459.892 437.514 468.42C384.635 480.433 358.662 457.38 354.02 448.974C305.102 360.319 490.336 162.377 529.597 151.361ZM270.086 189.464C287.867 167.406 324.888 167.405 342.668 189.464C356.991 207.236 356.989 230.14 342.668 247.913C324.888 269.973 287.867 269.973 270.086 247.913C255.764 230.14 255.762 207.236 270.086 189.464Z" fill="#265EE9"/>
</g>
<defs>
<clipPath id="clip0_183_72">
<rect width="648" height="648" fill="white"/>
</clipPath>
</defs>
</svg>
