<svg width="648" height="648" viewBox="0 0 648 648" fill="none" xmlns="http://www.w3.org/2000/svg">
<g clip-path="url(#clip0_183_75)">
<path fill-rule="evenodd" clip-rule="evenodd" d="M408.43 505.248C460.078 508.273 501.704 476.462 501.704 476.462C501.704 476.462 496.212 496.242 492.047 510.545C490.18 516.956 496.099 524.963 497.117 525.931C501.092 529.714 507.921 533.405 514.741 532.227C573.227 522.126 756.834 346.366 557.484 126.462C557.586 113.56 560.23 106.03 557.484 93.4223C552.469 70.3942 528.894 47.6365 499.385 34.3583C252.297 -76.8229 -4.81994 82.1074 0.0686319 507.068C70.5676 594.074 255.535 695.954 445.945 623.141C451.923 620.855 455.382 616.576 451.911 608.346L408.43 505.248ZM30.5909 498.658C152.02 620.948 312.316 634.145 417.731 602.604C417.731 602.604 393.836 539.772 374.686 501.281C288.241 498.658 95.1363 461.113 169.121 228.29C184.983 178.371 313.411 40.0407 428.452 201.623C494.786 124.811 527.974 119.901 527.974 119.901C527.974 119.901 530.88 103.039 526.142 93.4223C522.357 85.7387 510.912 75.0041 502.51 70.3942C292.076 -45.0589 24.2224 72.8765 30.5909 498.658ZM526.984 496.242C652.878 404.135 637.612 256.177 536.026 145.976C495.538 157.336 304.522 361.456 354.968 452.883C359.749 461.548 386.524 485.324 441.063 472.933C479.779 464.138 513.218 433.542 513.218 424.995C513.218 402.127 478.73 418.906 459.541 345.834C450.062 309.74 474.573 287.761 484.69 284.644C486.253 319.261 486.267 337.193 493.555 355.63C507.011 389.667 530.086 382.381 540.873 408.453C547.937 425.525 533.92 462.233 526.984 496.242ZM268.414 245.547C253.639 227.217 253.639 203.602 268.414 185.273C286.75 162.523 324.917 162.523 343.254 185.273C358.028 203.602 358.028 227.217 343.254 245.547C324.917 268.296 286.75 268.296 268.414 245.547Z" fill="white"/>
</g>
<defs>
<clipPath id="clip0_183_75">
<rect width="648" height="648" fill="white"/>
</clipPath>
</defs>
</svg>
